<?xml version="1.0" standalone="no"?>
<svg viewBox="0 0 200 200" xmlns="http://www.w3.org/2000/svg">
  <path fill="#FF0066" d="M35.6,-57.5C49.9,-53.4,67.8,-51.4,72.3,-42.2C76.7,-33,67.8,-16.5,66.7,-0.6C65.6,15.3,72.5,30.6,68,39.7C63.5,48.8,47.5,51.8,34.3,59.7C21.1,67.6,10.5,80.5,-1.3,82.7C-13.1,84.9,-26.2,76.5,-39.9,68.8C-53.5,61.1,-67.8,54.2,-69.8,42.9C-71.9,31.6,-61.8,15.8,-56.1,3.3C-50.5,-9.3,-49.4,-18.6,-47.5,-30.2C-45.6,-41.9,-43,-55.9,-35,-63.6C-26.9,-71.2,-13.5,-72.5,-1.4,-70C10.7,-67.6,21.3,-61.5,35.6,-57.5Z" transform="translate(100 100)" />
</svg>
