<?xml version="1.0" standalone="no"?>
<svg viewBox="0 0 200 200" xmlns="http://www.w3.org/2000/svg">
  <path fill="#FF0066" d="M36.9,-68.3C47.4,-57.8,55.2,-47.1,62.5,-35.7C69.8,-24.3,76.7,-12.1,79.6,1.7C82.5,15.5,81.5,31,71.8,38.2C62,45.5,43.6,44.5,30.2,45.2C16.7,46,8.4,48.5,-3.6,54.7C-15.5,60.8,-31,70.7,-44.2,69.8C-57.4,69,-68.3,57.3,-76.5,43.9C-84.6,30.5,-90,15.2,-90.8,-0.5C-91.6,-16.2,-87.9,-32.4,-76.5,-40.2C-65.1,-48,-46.1,-47.5,-32.1,-55.9C-18.1,-64.3,-9,-81.6,2.1,-85.2C13.2,-88.8,26.4,-78.7,36.9,-68.3Z" transform="translate(100 100)" />
</svg>
