<?xml version="1.0" standalone="no"?>
<svg viewBox="0 0 200 200" xmlns="http://www.w3.org/2000/svg">
  <path fill="#FF0066" d="M32.8,-53C45.7,-49.3,61.7,-47.1,66.6,-38.5C71.5,-29.9,65.4,-14.9,60.9,-2.6C56.3,9.7,53.3,19.3,48.3,27.8C43.3,36.3,36.4,43.7,28,50.1C19.6,56.5,9.8,62,-2.2,65.9C-14.2,69.7,-28.5,71.9,-42,68.4C-55.5,64.9,-68.2,55.8,-77.1,43.5C-86,31.2,-91.1,15.6,-89.6,0.9C-88.1,-13.8,-80,-27.7,-68.4,-35.4C-56.9,-43.1,-41.8,-44.7,-29.8,-48.9C-17.8,-53,-8.9,-59.8,0.5,-60.7C9.9,-61.6,19.9,-56.6,32.8,-53Z" transform="translate(100 100)" />
</svg>
