<?xml version="1.0" standalone="no"?>
<svg viewBox="0 0 200 200" xmlns="http://www.w3.org/2000/svg">
  <path fill="#FF0066" d="M24.7,-45.7C32.2,-38.6,38.3,-32.1,43.7,-24.6C49.1,-17.1,53.8,-8.6,57.8,2.3C61.7,13.1,64.9,26.2,63.3,40.4C61.7,54.5,55.4,69.7,44,74.3C32.7,78.9,16.3,72.9,3,67.6C-10.3,62.4,-20.6,57.9,-29.3,51.8C-38.1,45.7,-45.4,38.1,-50.8,29.2C-56.3,20.3,-59.9,10.1,-59.5,0.2C-59.2,-9.8,-55,-19.6,-51.7,-32.1C-48.3,-44.5,-45.8,-59.8,-37.3,-66.3C-28.9,-72.7,-14.4,-70.5,-2.9,-65.5C8.7,-60.5,17.3,-52.8,24.7,-45.7Z" transform="translate(100 100)" />
</svg>
