<?xml version="1.0" standalone="no"?>
<svg viewBox="0 0 200 200" xmlns="http://www.w3.org/2000/svg">
  <path fill="#FF0066" d="M42.6,-74.6C55.5,-66.2,66.6,-55.5,69.8,-42.7C73,-29.9,68.4,-14.9,67,-0.8C65.7,13.4,67.6,26.8,63.9,38.8C60.2,50.8,50.9,61.5,39.3,69.2C27.8,76.9,13.9,81.7,2.5,77.4C-8.9,73.1,-17.8,59.7,-25.3,49.6C-32.7,39.4,-38.7,32.6,-50.3,24.9C-61.9,17.2,-79.2,8.6,-80.3,-0.7C-81.5,-9.9,-66.5,-19.8,-57.8,-32.6C-49.1,-45.3,-46.6,-60.9,-38,-71.8C-29.4,-82.7,-14.7,-89,0,-89.1C14.8,-89.1,29.6,-83,42.6,-74.6Z" transform="translate(100 100)" />
</svg>
