<?xml version="1.0" standalone="no"?>
<svg viewBox="0 0 200 200" xmlns="http://www.w3.org/2000/svg">
  <path fill="#FF0066" d="M39.1,-75.8C46.5,-63.4,45.4,-44.5,50.3,-30.8C55.2,-17.1,66,-8.5,68.7,1.6C71.4,11.6,65.9,23.3,60.1,35.4C54.3,47.5,48.2,60.1,38.1,64.1C28,68.1,14,63.5,1.7,60.6C-10.7,57.7,-21.3,56.5,-35.6,55C-49.9,53.5,-67.9,51.5,-77.9,42.3C-87.8,33,-89.8,16.5,-84.6,3C-79.4,-10.5,-67,-21,-57.1,-30.3C-47.1,-39.6,-39.6,-47.6,-30.5,-59C-21.4,-70.4,-10.7,-85.1,2.6,-89.5C15.8,-94,31.7,-88.1,39.1,-75.8Z" transform="translate(100 100)" />
</svg>
